<svg xmlns="http://www.w3.org/2000/svg" viewBox="0 0 128 128">
  <defs>
    <linearGradient id="bg" x1="0" y1="0" x2="1" y2="1">
      <stop stop-color="#17804a"/>
      <stop offset="1" stop-color="#0e5d3a"/>
    </linearGradient>
  </defs>
  <rect width="128" height="128" rx="30" fill="url(#bg)"/>
  <rect x="19" y="28" width="90" height="76" rx="16" fill="#fffdf4"/>
  <path d="M34 28h22l7 10h31a15 15 0 0 1 15 15v36a15 15 0 0 1-15 15H34a15 15 0 0 1-15-15V43a15 15 0 0 1 15-15Z" fill="#ffd43b"/>
  <circle cx="64" cy="68" r="25" fill="#17804a"/>
  <circle cx="64" cy="68" r="15" fill="#fffdf4"/>
  <circle cx="64" cy="68" r="8" fill="#ef6c57"/>
  <circle cx="92" cy="48" r="5" fill="#17804a"/>
  <path d="M31 94l20-19 12 11 10-9 22 17H31Z" fill="#70b84d" opacity=".9"/>
</svg>